<?xml version="1.0" encoding="UTF-8" standalone="no"?>
<svg
   xmlns:dc="http://purl.org/dc/elements/1.1/"
   xmlns:cc="http://creativecommons.org/ns#"
   xmlns:rdf="http://www.w3.org/1999/02/22-rdf-syntax-ns#"
   xmlns:svg="http://www.w3.org/2000/svg"
   xmlns="http://www.w3.org/2000/svg"
   xmlns:sodipodi="http://sodipodi.sourceforge.net/DTD/sodipodi-0.dtd"
   xmlns:inkscape="http://www.inkscape.org/namespaces/inkscape"
   style="font-style:normal;font-weight:normal;font-size:12px;font-family:Dialog;color-interpolation:auto;fill:#000000;fill-opacity:1;stroke:#000000;stroke-width:1;stroke-linecap:square;stroke-linejoin:miter;stroke-miterlimit:10;stroke-dasharray:none;stroke-dashoffset:0;stroke-opacity:1;color-rendering:auto;image-rendering:auto;shape-rendering:auto;text-rendering:auto"
   width="297mm"
   height="210mm"
   id="svg2"
   version="1.1"
   inkscape:version="0.91 r13725"
   sodipodi:docname="print_julien.svg">
  <sodipodi:namedview
     pagecolor="#ffffff"
     bordercolor="#666666"
     borderopacity="1"
     objecttolerance="10"
     gridtolerance="10"
     guidetolerance="10"
     inkscape:pageopacity="0"
     inkscape:pageshadow="2"
     inkscape:window-width="1451"
     inkscape:window-height="806"
     id="namedview255"
     showgrid="false"
     units="mm"
     inkscape:zoom="0.74167645"
     inkscape:cx="538.71132"
     inkscape:cy="307.5789"
     inkscape:window-x="121"
     inkscape:window-y="34"
     inkscape:window-maximized="0"
     inkscape:current-layer="svg2" />
  <metadata
     id="metadata257">
    <rdf:RDF>
      <cc:Work
         rdf:about="">
        <dc:format>image/svg+xml</dc:format>
        <dc:type
           rdf:resource="http://purl.org/dc/dcmitype/StillImage" />
        <dc:title></dc:title>
      </cc:Work>
    </rdf:RDF>
  </metadata>
  <!--Generated by the Batik Graphics2D SVG Generator-->
  <defs
     id="genericDefs" />
  <g
     transform="translate(211.18111,-77.952756)"
     id="g5">
    <g
       id="g7"
       transform="translate(315,450)"
       style="stroke-linecap:round">
      <path
         inkscape:connector-curvature="0"
         id="path9"
         d="m 0,-10 8.6603,5 0,10 L 0,10 -8.6603,5 l 0,-10 z"
         style="fill:none" />
    </g>
    <g
       id="g11"
       transform="matrix(0.99920417,0.03988764,-0.03988764,0.99920417,315,450)"
       style="stroke-linecap:round">
      <path
         inkscape:connector-curvature="0"
         id="path13"
         d="m 0,-15.3697 13.3105,7.6849 0,15.3696 L 0,15.3697 -13.3105,7.6848 l 0,-15.3697 z"
         style="fill:none" />
    </g>
    <g
       id="g15"
       transform="matrix(0.99710288,0.0760647,-0.0760647,0.99710288,315,450)"
       style="stroke-linecap:round">
      <path
         inkscape:connector-curvature="0"
         id="path17"
         d="m 0,-20.7394 17.9608,10.3697 0,20.7394 L 0,20.7394 -17.9608,10.3697 l 0,-20.7394 z"
         style="fill:none" />
    </g>
    <g
       id="g19"
       transform="matrix(0.99445107,0.10520018,-0.10520018,0.99445107,315,450)"
       style="stroke-linecap:round">
      <path
         inkscape:connector-curvature="0"
         id="path21"
         d="m 0,-26.1091 22.6111,13.0546 0,26.109 L 0,26.1091 -22.6111,13.0545 l 0,-26.1091 z"
         style="fill:none" />
    </g>
    <g
       id="g23"
       transform="matrix(0.99219978,0.12465789,-0.12465789,0.99219978,315,450)"
       style="stroke-linecap:round">
      <path
         inkscape:connector-curvature="0"
         id="path25"
         d="m 0,-31.4788 27.2614,15.7394 0,31.4788 L 0,31.4788 -27.2614,15.7394 l 0,-31.4788 z"
         style="fill:none" />
    </g>
    <g
       id="g27"
       transform="matrix(0.99115403,0.13271656,-0.13271656,0.99115403,315,450)"
       style="stroke-linecap:round">
      <path
         inkscape:connector-curvature="0"
         id="path29"
         d="m 0,-36.8485 31.9117,18.4243 0,36.8484 L 0,36.8485 -31.9117,18.4242 l 0,-36.8484 z"
         style="fill:none" />
    </g>
    <g
       id="g31"
       transform="matrix(0.99168779,0.12866752,-0.12866752,0.99168779,315,450)"
       style="stroke-linecap:round">
      <path
         inkscape:connector-curvature="0"
         id="path33"
         d="m 0,-42.2182 36.562,21.1091 0,42.2182 L 0,42.2182 -36.562,21.1091 l 0,-42.2182 z"
         style="fill:none" />
    </g>
    <g
       id="g35"
       transform="matrix(0.99361013,0.11286679,-0.11286679,0.99361013,315,450)"
       style="stroke-linecap:round">
      <path
         inkscape:connector-curvature="0"
         id="path37"
         d="m 0,-47.5879 41.2123,23.794 0,47.5878 L 0,47.5879 l -41.2123,-23.794 0,-47.5878 z"
         style="fill:none" />
    </g>
    <g
       id="g39"
       transform="matrix(0.99623399,0.08670541,-0.08670541,0.99623399,315,450)"
       style="stroke-linecap:round">
      <path
         inkscape:connector-curvature="0"
         id="path41"
         d="m 0,-52.9576 45.8626,26.4788 0,52.9576 L 0,52.9576 -45.8626,26.4788 l 0,-52.9576 z"
         style="fill:none" />
    </g>
    <g
       id="g43"
       transform="matrix(0.9986191,0.05253465,-0.05253465,0.9986191,315,450)"
       style="stroke-linecap:round">
      <path
         inkscape:connector-curvature="0"
         id="path45"
         d="m 0,-58.3273 50.5129,29.1637 0,58.3272 L 0,58.3273 -50.5129,29.1636 l 0,-58.3272 z"
         style="fill:none" />
    </g>
    <g
       id="g47"
       transform="matrix(0.99990909,0.01348401,-0.01348401,0.99990909,315,450)"
       style="stroke-linecap:round">
      <path
         inkscape:connector-curvature="0"
         id="path49"
         d="m 0,-63.697 55.1632,31.8485 0,63.697 L 0,63.697 -55.1632,31.8485 l 0,-63.697 z"
         style="fill:none" />
    </g>
    <g
       id="g51"
       transform="matrix(0.99964012,-0.02682598,0.02682598,0.99964012,315,450)"
       style="stroke-linecap:round">
      <path
         inkscape:connector-curvature="0"
         id="path53"
         d="m 0,-69.0667 59.8135,34.5334 0,69.0666 L 0,69.0667 -59.8135,34.5333 l 0,-69.0666 z"
         style="fill:none" />
    </g>
    <g
       id="g55"
       transform="matrix(0.99790897,-0.06463507,0.06463507,0.99790897,315,450)"
       style="stroke-linecap:round">
      <path
         inkscape:connector-curvature="0"
         id="path57"
         d="m 0,-74.4364 64.4638,37.2182 0,74.4364 L 0,74.4364 -64.4638,37.2182 l 0,-74.4364 z"
         style="fill:none" />
    </g>
    <g
       id="g59"
       transform="matrix(0.9953378,-0.09645031,0.09645031,0.9953378,315,450)"
       style="stroke-linecap:round">
      <path
         inkscape:connector-curvature="0"
         id="path61"
         d="m 0,-79.8061 69.1141,39.9031 0,79.806 L 0,79.8061 -69.1141,39.903 l 0,-79.806 z"
         style="fill:none" />
    </g>
    <g
       id="g63"
       transform="matrix(0.99284931,-0.11937442,0.11937442,0.99284931,315,450)"
       style="stroke-linecap:round">
      <path
         inkscape:connector-curvature="0"
         id="path65"
         d="m 0,-85.1758 73.7644,42.5879 0,85.1758 L 0,85.1758 -73.7644,42.5879 l 0,-85.1758 z"
         style="fill:none" />
    </g>
    <g
       id="g67"
       transform="matrix(0.99133448,-0.13136193,0.13136193,0.99133448,315,450)"
       style="stroke-linecap:round">
      <path
         inkscape:connector-curvature="0"
         id="path69"
         d="m 0,-90.5455 78.4147,45.2728 0,90.5454 L 0,90.5455 -78.4147,45.2727 l 1e-4,-90.5454 z"
         style="fill:none" />
    </g>
    <g
       id="g71"
       transform="matrix(0.99133448,-0.13136193,0.13136193,0.99133448,315,450)"
       style="stroke-linecap:round">
      <path
         inkscape:connector-curvature="0"
         id="path73"
         d="m 0,-95.9152 83.065,47.9576 0,95.9152 L 0,95.9152 -83.065,47.9576 l 1e-4,-95.9152 z"
         style="fill:none" />
    </g>
    <g
       id="g75"
       transform="matrix(0.99284931,-0.11937442,0.11937442,0.99284931,315,450)"
       style="stroke-linecap:round">
      <path
         inkscape:connector-curvature="0"
         id="path77"
         d="m 0,-101.2849 87.7153,50.6425 0,101.2848 L 0,101.2849 -87.7153,50.6424 l 1e-4,-101.2848 z"
         style="fill:none" />
    </g>
    <g
       id="g79"
       transform="matrix(0.9953378,-0.09645031,0.09645031,0.9953378,315,450)"
       style="stroke-linecap:round">
      <path
         inkscape:connector-curvature="0"
         id="path81"
         d="m 0,-106.6545 92.3655,53.3272 0,106.6546 L 0,106.6545 -92.3655,53.3273 l 0,-106.6546 z"
         style="fill:none" />
    </g>
    <g
       id="g83"
       transform="matrix(0.99790897,-0.06463507,0.06463507,0.99790897,315,450)"
       style="stroke-linecap:round">
      <path
         inkscape:connector-curvature="0"
         id="path85"
         d="m 0,-112.0242 97.0158,56.0121 0,112.0242 L 0,112.0242 -97.0158,56.0121 l 0,-112.0242 z"
         style="fill:none" />
    </g>
    <g
       id="g87"
       transform="matrix(0.99964012,-0.02682598,0.02682598,0.99964012,315,450)"
       style="stroke-linecap:round">
      <path
         inkscape:connector-curvature="0"
         id="path89"
         d="m 0,-117.3939 101.6661,58.6969 0,117.394 L 0,117.3939 -101.6661,58.697 l 0,-117.394 z"
         style="fill:none" />
    </g>
    <g
       id="g91"
       transform="matrix(0.99990909,0.01348401,-0.01348401,0.99990909,315,450)"
       style="stroke-linecap:round">
      <path
         inkscape:connector-curvature="0"
         id="path93"
         d="m 0,-122.7636 106.3164,61.3818 0,122.7636 L 0,122.7636 -106.3164,61.3818 l 0,-122.7636 z"
         style="fill:none" />
    </g>
    <g
       id="g95"
       transform="matrix(0.9986191,0.05253465,-0.05253465,0.9986191,315,450)"
       style="stroke-linecap:round">
      <path
         inkscape:connector-curvature="0"
         id="path97"
         d="m 0,-128.1333 110.9667,64.0666 0,128.1334 L 0,128.1333 -110.9667,64.0667 l 0,-128.1334 z"
         style="fill:none" />
    </g>
    <g
       id="g99"
       transform="matrix(0.99623399,0.08670541,-0.08670541,0.99623399,315,450)"
       style="stroke-linecap:round">
      <path
         inkscape:connector-curvature="0"
         id="path101"
         d="m 0,-133.503 115.617,66.7515 0,133.503 L 0,133.503 -115.617,66.7515 l 0,-133.503 z"
         style="fill:none" />
    </g>
    <g
       id="g103"
       transform="matrix(0.99361013,0.11286679,-0.11286679,0.99361013,315,450)"
       style="stroke-linecap:round">
      <path
         inkscape:connector-curvature="0"
         id="path105"
         d="m 0,-138.8727 120.2673,69.4363 0,138.8728 L 0,138.8727 -120.2673,69.4364 l 0,-138.8728 z"
         style="fill:none" />
    </g>
    <g
       id="g107"
       transform="matrix(0.99168779,0.12866752,-0.12866752,0.99168779,315,450)"
       style="stroke-linecap:round">
      <path
         inkscape:connector-curvature="0"
         id="path109"
         d="m 0,-144.2424 124.9176,72.1212 0,144.2424 L 0,144.2424 -124.9176,72.1212 l 0,-144.2424 z"
         style="fill:none" />
    </g>
    <g
       id="g111"
       transform="matrix(0.99115403,0.13271656,-0.13271656,0.99115403,315,450)"
       style="stroke-linecap:round">
      <path
         inkscape:connector-curvature="0"
         id="path113"
         d="m 0,-149.6121 129.5679,74.806 0,149.6122 L 0,149.6121 l -129.5679,-74.806 0,-149.6122 z"
         style="fill:none" />
    </g>
    <g
       id="g115"
       transform="matrix(0.99219978,0.12465789,-0.12465789,0.99219978,315,450)"
       style="stroke-linecap:round">
      <path
         inkscape:connector-curvature="0"
         id="path117"
         d="m 0,-154.9818 134.2182,77.4909 0,154.9818 L 0,154.9818 -134.2182,77.4909 l 0,-154.9818 z"
         style="fill:none" />
    </g>
    <g
       id="g119"
       transform="matrix(0.99445125,0.10519845,-0.10519845,0.99445125,315,450)"
       style="stroke-linecap:round">
      <path
         inkscape:connector-curvature="0"
         id="path121"
         d="m 0,-160.3515 138.8685,80.1757 0,160.3516 L 0,160.3515 -138.8685,80.1758 l 0,-160.3516 z"
         style="fill:none" />
    </g>
    <g
       id="g123"
       transform="matrix(0.99710288,0.0760647,-0.0760647,0.99710288,315,450)"
       style="stroke-linecap:round">
      <path
         inkscape:connector-curvature="0"
         id="path125"
         d="m 0,-165.7212 143.5188,82.8606 0,165.7212 L 0,165.7212 -143.5188,82.8606 l 0,-165.7212 z"
         style="fill:none" />
    </g>
    <g
       id="g127"
       transform="matrix(0.99920417,0.03988764,-0.03988764,0.99920417,315,450)"
       style="stroke-linecap:round">
      <path
         inkscape:connector-curvature="0"
         id="path129"
         d="m 0,-171.0909 148.1691,85.5454 0,171.091 L 0,171.0909 -148.1691,85.5455 l 0,-171.091 z"
         style="fill:none" />
    </g>
    <g
       id="g131"
       transform="translate(315,450)"
       style="stroke-linecap:round">
      <path
         inkscape:connector-curvature="0"
         id="path133"
         d="m 0,-176.4606 152.8194,88.2303 0,176.4606 L 0,176.4606 -152.8194,88.2303 l 0,-176.4606 z"
         style="fill:none" />
    </g>
    <g
       id="g135"
       transform="matrix(0.99920417,-0.03988764,0.03988764,0.99920417,315,450)"
       style="stroke-linecap:round">
      <path
         inkscape:connector-curvature="0"
         id="path137"
         d="m 0,-181.8303 157.4697,90.9151 0,181.8304 L 0,181.8303 -157.4697,90.9152 l 10e-5,-181.8304 z"
         style="fill:none" />
    </g>
    <g
       id="g139"
       transform="matrix(0.99710288,-0.0760647,0.0760647,0.99710288,315,450)"
       style="stroke-linecap:round">
      <path
         inkscape:connector-curvature="0"
         id="path141"
         d="m 0,-187.2 162.1199,93.6 0,187.2 L 0,187.2 -162.1199,93.6 l 0,-187.2 z"
         style="fill:none" />
    </g>
    <g
       id="g143"
       transform="matrix(0.99445125,-0.10519845,0.10519845,0.99445125,315,450)"
       style="stroke-linecap:round">
      <path
         inkscape:connector-curvature="0"
         id="path145"
         d="m 0,-192.5697 166.7702,96.2848 0,192.5698 L 0,192.5697 -166.7702,96.2849 l 0,-192.5698 z"
         style="fill:none" />
    </g>
    <g
       id="g147"
       transform="matrix(0.99219978,-0.12465789,0.12465789,0.99219978,315,450)"
       style="stroke-linecap:round">
      <path
         inkscape:connector-curvature="0"
         id="path149"
         d="m 0,-197.9394 171.4205,98.9697 0,197.9394 L 0,197.9394 -171.4205,98.9697 l 0,-197.9394 z"
         style="fill:none" />
    </g>
    <g
       id="g151"
       transform="matrix(0.99115403,-0.13271656,0.13271656,0.99115403,315,450)"
       style="stroke-linecap:round">
      <path
         inkscape:connector-curvature="0"
         id="path153"
         d="m 0,-203.3091 176.0708,101.6546 0,203.309 L 0,203.3091 -176.0708,101.6546 l 0,-203.3092 z"
         style="fill:none" />
    </g>
    <g
       id="g155"
       transform="matrix(0.99168779,-0.12866752,0.12866752,0.99168779,315,450)"
       style="stroke-linecap:round">
      <path
         inkscape:connector-curvature="0"
         id="path157"
         d="m 0,-208.6788 180.7211,104.3394 0,208.6788 L 0,208.6788 -180.7211,104.3394 l 0,-208.6788 z"
         style="fill:none" />
    </g>
    <g
       id="g159"
       transform="matrix(0.99361013,-0.11286679,0.11286679,0.99361013,315,450)"
       style="stroke-linecap:round">
      <path
         inkscape:connector-curvature="0"
         id="path161"
         d="m 0,-214.0485 185.3714,107.0243 0,214.0484 L 0,214.0485 -185.3714,107.0243 l 0,-214.0486 z"
         style="fill:none" />
    </g>
    <g
       id="g163"
       transform="matrix(0.99623399,-0.08670541,0.08670541,0.99623399,315,450)"
       style="stroke-linecap:round">
      <path
         inkscape:connector-curvature="0"
         id="path165"
         d="m 0,-219.4182 190.0217,109.7091 0,219.4182 L 0,219.4182 -190.0217,109.7091 l 0,-219.4182 z"
         style="fill:none" />
    </g>
    <g
       id="g167"
       transform="matrix(0.9986191,-0.05253465,0.05253465,0.9986191,315,450)"
       style="stroke-linecap:round">
      <path
         inkscape:connector-curvature="0"
         id="path169"
         d="m 0,-224.7879 194.672,112.394 0,224.7878 L 0,224.7879 -194.672,112.394 l 0,-224.788 z"
         style="fill:none" />
    </g>
    <g
       id="g171"
       transform="matrix(0.99990909,-0.01348401,0.01348401,0.99990909,315,450)"
       style="stroke-linecap:round">
      <path
         inkscape:connector-curvature="0"
         id="path173"
         d="m 0,-230.1576 199.3223,115.0788 0,230.1576 L 0,230.1576 -199.3223,115.0788 l 0,-230.1576 z"
         style="fill:none" />
    </g>
    <g
       id="g175"
       transform="matrix(0.99964012,0.02682598,-0.02682598,0.99964012,315,450)"
       style="stroke-linecap:round">
      <path
         inkscape:connector-curvature="0"
         id="path177"
         d="m 0,-235.5273 203.9726,117.7637 0,235.5272 L 0,235.5273 -203.9726,117.7637 l 0,-235.5274 z"
         style="fill:none" />
    </g>
    <g
       id="g179"
       transform="matrix(0.99790897,0.06463507,-0.06463507,0.99790897,315,450)"
       style="stroke-linecap:round">
      <path
         inkscape:connector-curvature="0"
         id="path181"
         d="m 0,-240.897 208.6229,120.4485 0,240.897 L 0,240.897 -208.6229,120.4485 l 0,-240.897 z"
         style="fill:none" />
    </g>
    <g
       id="g183"
       transform="matrix(0.9953378,0.09645031,-0.09645031,0.9953378,315,450)"
       style="stroke-linecap:round">
      <path
         inkscape:connector-curvature="0"
         id="path185"
         d="m 0,-246.2667 213.2732,123.1334 0,246.2666 L 0,246.2667 -213.2732,123.1334 l 0,-246.2668 z"
         style="fill:none" />
    </g>
    <g
       id="g187"
       transform="matrix(0.99284931,0.11937442,-0.11937442,0.99284931,315,450)"
       style="stroke-linecap:round">
      <path
         inkscape:connector-curvature="0"
         id="path189"
         d="m 0,-251.6364 217.9235,125.8182 0,251.6364 L 0,251.6364 -217.9235,125.8182 l 1e-4,-251.6364 z"
         style="fill:none" />
    </g>
    <g
       id="g191"
       transform="matrix(0.99133448,0.13136193,-0.13136193,0.99133448,315,450)"
       style="stroke-linecap:round">
      <path
         inkscape:connector-curvature="0"
         id="path193"
         d="m 0,-257.0061 222.5738,128.5031 0,257.006 L 0,257.0061 l -222.5738,-128.503 0,-257.0062 z"
         style="fill:none" />
    </g>
    <g
       id="g195"
       transform="matrix(0.99133448,0.13136193,-0.13136193,0.99133448,315,450)"
       style="stroke-linecap:round">
      <path
         inkscape:connector-curvature="0"
         id="path197"
         d="m 0,-262.3758 227.2241,131.1879 0,262.3758 L 0,262.3758 -227.2241,131.1879 l 1e-4,-262.3758 z"
         style="fill:none" />
    </g>
    <g
       id="g199"
       transform="matrix(0.99284931,0.11937442,-0.11937442,0.99284931,315,450)"
       style="stroke-linecap:round">
      <path
         inkscape:connector-curvature="0"
         id="path201"
         d="m 0,-267.7455 231.8744,133.8728 0,267.7454 L 0,267.7455 -231.8744,133.8727 l 1e-4,-267.7455 z"
         style="fill:none" />
    </g>
    <g
       id="g203"
       transform="matrix(0.9953378,0.09645031,-0.09645031,0.9953378,315,450)"
       style="stroke-linecap:round">
      <path
         inkscape:connector-curvature="0"
         id="path205"
         d="m 0,-273.1151 236.5246,136.5575 0,273.1152 L 0,273.1151 -236.5246,136.5576 l 0,-273.1152 z"
         style="fill:none" />
    </g>
    <g
       id="g207"
       transform="matrix(0.99790897,0.06463507,-0.06463507,0.99790897,315,450)"
       style="stroke-linecap:round">
      <path
         inkscape:connector-curvature="0"
         id="path209"
         d="m 0,-278.4849 241.175,139.2425 0,278.4848 L 0,278.4849 -241.175,139.2424 l 1e-4,-278.4849 z"
         style="fill:none" />
    </g>
    <g
       id="g211"
       transform="matrix(0.99964012,0.02682598,-0.02682598,0.99964012,315,450)"
       style="stroke-linecap:round">
      <path
         inkscape:connector-curvature="0"
         id="path213"
         d="m 0,-283.8546 245.8253,141.9273 0,283.8546 L 0,283.8546 -245.8253,141.9273 l 1e-4,-283.8546 z"
         style="fill:none" />
    </g>
    <g
       id="g215"
       transform="matrix(0.99990909,-0.01348401,0.01348401,0.99990909,315,450)"
       style="stroke-linecap:round">
      <path
         inkscape:connector-curvature="0"
         id="path217"
         d="m 0,-289.2242 250.4755,144.6121 0,289.2242 L 0,289.2242 -250.4755,144.6121 l 0,-289.2243 z"
         style="fill:none" />
    </g>
    <g
       id="g219"
       transform="matrix(0.99861901,-0.05253639,0.05253639,0.99861901,315,450)"
       style="stroke-linecap:round">
      <path
         inkscape:connector-curvature="0"
         id="path221"
         d="m 0,-294.5939 255.1258,147.2969 0,294.594 L 0,294.5939 -255.1258,147.297 l 0,-294.594 z"
         style="fill:none" />
    </g>
    <g
       id="g223"
       transform="matrix(0.99623399,-0.08670541,0.08670541,0.99623399,315,450)"
       style="stroke-linecap:round">
      <path
         inkscape:connector-curvature="0"
         id="path225"
         d="m 0,-299.9637 259.7762,149.9819 0,299.9636 L 0,299.9637 -259.7762,149.9818 l 1e-4,-299.9637 z"
         style="fill:none" />
    </g>
    <g
       id="g227"
       transform="matrix(0.99361013,-0.11286679,0.11286679,0.99361013,315,450)"
       style="stroke-linecap:round">
      <path
         inkscape:connector-curvature="0"
         id="path229"
         d="m 0,-305.3333 264.4264,152.6666 0,305.3334 L 0,305.3333 -264.4264,152.6667 l 0,-305.3334 z"
         style="fill:none" />
    </g>
    <g
       id="g231"
       transform="matrix(0.99168779,-0.12866752,0.12866752,0.99168779,315,450)"
       style="stroke-linecap:round">
      <path
         inkscape:connector-curvature="0"
         id="path233"
         d="m 0,-310.703 269.0767,155.3515 0,310.703 L 0,310.703 -269.0767,155.3515 l 0,-310.7031 z"
         style="fill:none" />
    </g>
    <g
       id="g235"
       transform="matrix(0.99115403,-0.13271656,0.13271656,0.99115403,315,450)"
       style="stroke-linecap:round">
      <path
         inkscape:connector-curvature="0"
         id="path237"
         d="m 0,-316.0727 273.727,158.0363 0,316.0728 L 0,316.0727 -273.727,158.0364 l 0,-316.0728 z"
         style="fill:none" />
    </g>
    <g
       id="g239"
       transform="matrix(0.99219978,-0.12465789,0.12465789,0.99219978,315,450)"
       style="stroke-linecap:round">
      <path
         inkscape:connector-curvature="0"
         id="path241"
         d="m 0,-321.4424 278.3773,160.7212 0,321.4424 L 0,321.4424 -278.3773,160.7212 l 0,-321.4425 z"
         style="fill:none" />
    </g>
    <g
       id="g243"
       transform="matrix(0.99445125,-0.10519845,0.10519845,0.99445125,315,450)"
       style="stroke-linecap:round">
      <path
         inkscape:connector-curvature="0"
         id="path245"
         d="m 0,-326.8121 283.0276,163.406 0,326.8122 L 0,326.8121 l -283.0276,-163.406 0,-326.8122 z"
         style="fill:none" />
    </g>
    <g
       id="g247"
       transform="matrix(0.99710288,-0.0760647,0.0760647,0.99710288,315,450)"
       style="stroke-linecap:round">
      <path
         inkscape:connector-curvature="0"
         id="path249"
         d="m 0,-332.1818 287.6779,166.0909 0,332.1818 L 0,332.1818 -287.6779,166.0909 l 0,-332.1819 z"
         style="fill:none" />
    </g>
    <g
       id="g251"
       transform="matrix(0.99920417,-0.03988764,0.03988764,0.99920417,315,450)"
       style="stroke-linecap:round">
      <path
         inkscape:connector-curvature="0"
         id="path253"
         d="m 0,-337.5515 292.3282,168.7757 0,337.5516 L 0,337.5515 -292.3282,168.7758 l 0,-337.5516 z"
         style="fill:none" />
    </g>
  </g>
  <WCB
     application="Axidraw"
     randseed="0"
     pausedposy="0"
     pausedposx="0"
     lastknownposy="0"
     lastknownposx="0"
     lastpathnc="0"
     lastpath="0"
     node="0"
     layer="0" />
</svg>
