<?xml version="1.0" encoding="UTF-8" standalone="no"?>
<svg
   xmlns:dc="http://purl.org/dc/elements/1.1/"
   xmlns:cc="http://creativecommons.org/ns#"
   xmlns:rdf="http://www.w3.org/1999/02/22-rdf-syntax-ns#"
   xmlns:svg="http://www.w3.org/2000/svg"
   xmlns="http://www.w3.org/2000/svg"
   xmlns:sodipodi="http://sodipodi.sourceforge.net/DTD/sodipodi-0.dtd"
   xmlns:inkscape="http://www.inkscape.org/namespaces/inkscape"
   style="font-style:normal;font-weight:normal;font-size:12px;font-family:Dialog;color-interpolation:auto;fill:#000000;fill-opacity:1;stroke:#000000;stroke-width:1;stroke-linecap:square;stroke-linejoin:miter;stroke-miterlimit:10;stroke-dasharray:none;stroke-dashoffset:0;stroke-opacity:1;color-rendering:auto;image-rendering:auto;shape-rendering:auto;text-rendering:auto"
   width="297mm"
   height="210mm"
   id="svg2"
   version="1.1"
   inkscape:version="0.91 r13725"
   sodipodi:docname="print_lydia_01.svg">
  <sodipodi:namedview
     pagecolor="#ffffff"
     bordercolor="#666666"
     borderopacity="1"
     objecttolerance="10"
     gridtolerance="10"
     guidetolerance="10"
     inkscape:pageopacity="0"
     inkscape:pageshadow="2"
     inkscape:window-width="1780"
     inkscape:window-height="981"
     id="namedview393"
     showgrid="false"
     units="mm"
     inkscape:zoom="0.79465333"
     inkscape:cx="486.784"
     inkscape:cy="404.35503"
     inkscape:window-x="0"
     inkscape:window-y="0"
     inkscape:window-maximized="0"
     inkscape:current-layer="svg2" />
  <metadata
     id="metadata395">
    <rdf:RDF>
      <cc:Work
         rdf:about="">
        <dc:format>image/svg+xml</dc:format>
        <dc:type
           rdf:resource="http://purl.org/dc/dcmitype/StillImage" />
        <dc:title></dc:title>
      </cc:Work>
    </rdf:RDF>
  </metadata>
  <!--Generated by the Batik Graphics2D SVG Generator-->
  <defs
     id="genericDefs" />
  <g
     transform="matrix(0.86239878,0,0,0.86239878,9.6887175,5.0106021)"
     id="g5">
    <g
       id="g7"
       transform="translate(600,420)"
       style="fill:#ffffff;stroke:#ffffff;stroke-linecap:round">
      <ellipse
         id="ellipse9"
         cy="4.5"
         cx="185.3779"
         style="stroke:none"
         ry="4.5"
         rx="185.3779" />
    </g>
    <g
       id="g11"
       transform="translate(600,420)"
       style="stroke-linecap:round">
      <ellipse
         id="ellipse13"
         cy="4.5"
         cx="185.3779"
         style="fill:none"
         ry="4.5"
         rx="185.3779" />
      <ellipse
         id="ellipse15"
         cy="4.5"
         ry="4.5"
         cx="151.4308"
         rx="151.4308"
         style="fill:#ffffff;stroke:none"
         transform="matrix(0.99597423,0.08964005,-0.08964005,0.99597423,0,0)" />
      <ellipse
         id="ellipse17"
         cy="4.5"
         ry="4.5"
         cx="151.4308"
         rx="151.4308"
         style="fill:none"
         transform="matrix(0.99597423,0.08964005,-0.08964005,0.99597423,0,0)" />
      <ellipse
         id="ellipse19"
         cy="4.5"
         ry="4.5"
         cx="193.8219"
         rx="193.8219"
         style="fill:#ffffff;stroke:none"
         transform="matrix(0.98392963,0.17855665,-0.17855665,0.98392963,0,0)" />
      <ellipse
         id="ellipse21"
         cy="4.5"
         ry="4.5"
         cx="193.8219"
         rx="193.8219"
         style="fill:none"
         transform="matrix(0.98392963,0.17855665,-0.17855665,0.98392963,0,0)" />
      <ellipse
         id="ellipse23"
         cy="4.5"
         ry="4.5"
         cx="191.3495"
         rx="191.3495"
         style="fill:#ffffff;stroke:none"
         transform="matrix(0.96396273,0.26603733,-0.26603733,0.96396273,0,0)" />
      <ellipse
         id="ellipse25"
         cy="4.5"
         ry="4.5"
         cx="191.3495"
         rx="191.3495"
         style="fill:none"
         transform="matrix(0.96396273,0.26603733,-0.26603733,0.96396273,0,0)" />
      <ellipse
         id="ellipse27"
         cy="4.5"
         ry="4.5"
         cx="180.21539"
         rx="180.21539"
         style="fill:#ffffff;stroke:none"
         transform="matrix(0.93623505,0.35137436,-0.35137436,0.93623505,0,0)" />
      <ellipse
         id="ellipse29"
         cy="4.5"
         ry="4.5"
         cx="180.21539"
         rx="180.21539"
         style="fill:none"
         transform="matrix(0.93623505,0.35137436,-0.35137436,0.93623505,0,0)" />
      <ellipse
         id="ellipse31"
         cy="4.5"
         ry="4.5"
         cx="193.89439"
         rx="193.89439"
         style="fill:#ffffff;stroke:none"
         transform="matrix(0.90096876,0.43388396,-0.43388396,0.90096876,0,0)" />
      <ellipse
         id="ellipse33"
         cy="4.5"
         ry="4.5"
         cx="193.89439"
         rx="193.89439"
         style="fill:none"
         transform="matrix(0.90096876,0.43388396,-0.43388396,0.90096876,0,0)" />
      <ellipse
         id="ellipse35"
         cy="4.5"
         ry="4.5"
         cx="166.8756"
         rx="166.8756"
         style="fill:#ffffff;stroke:none"
         transform="matrix(0.85844918,0.51289864,-0.51289864,0.85844918,0,0)" />
      <ellipse
         id="ellipse37"
         cy="4.5"
         ry="4.5"
         cx="166.8756"
         rx="166.8756"
         style="fill:none"
         transform="matrix(0.85844918,0.51289864,-0.51289864,0.85844918,0,0)" />
      <ellipse
         id="ellipse39"
         cy="4.5"
         ry="4.5"
         cx="153.4807"
         rx="153.4807"
         style="fill:#ffffff;stroke:none"
         transform="matrix(0.80901699,0.58778525,-0.58778525,0.80901699,0,0)" />
      <ellipse
         id="ellipse41"
         cy="4.5"
         ry="4.5"
         cx="153.4807"
         rx="153.4807"
         style="fill:none"
         transform="matrix(0.80901699,0.58778525,-0.58778525,0.80901699,0,0)" />
      <ellipse
         id="ellipse43"
         cy="4.5"
         ry="4.5"
         cx="185.69591"
         rx="185.69591"
         style="fill:#ffffff;stroke:none"
         transform="matrix(0.75307097,0.65793929,-0.65793929,0.75307097,0,0)" />
      <ellipse
         id="ellipse45"
         cy="4.5"
         ry="4.5"
         cx="185.69591"
         rx="185.69591"
         style="fill:none"
         transform="matrix(0.75307097,0.65793929,-0.65793929,0.75307097,0,0)" />
      <ellipse
         id="ellipse47"
         cy="4.5"
         ry="4.5"
         cx="170.7377"
         rx="170.7377"
         style="fill:#ffffff;stroke:none"
         transform="matrix(0.69106283,0.72279469,-0.72279469,0.69106283,0,0)" />
      <ellipse
         id="ellipse49"
         cy="4.5"
         ry="4.5"
         cx="170.7377"
         rx="170.7377"
         style="fill:none"
         transform="matrix(0.69106283,0.72279469,-0.72279469,0.69106283,0,0)" />
      <ellipse
         id="ellipse51"
         cy="4.5"
         ry="4.5"
         cx="172.0536"
         rx="172.0536"
         style="fill:#ffffff;stroke:none"
         transform="matrix(0.62348941,0.78183179,-0.78183179,0.62348941,0,0)" />
      <ellipse
         id="ellipse53"
         cy="4.5"
         ry="4.5"
         cx="172.0536"
         rx="172.0536"
         style="fill:none"
         transform="matrix(0.62348941,0.78183179,-0.78183179,0.62348941,0,0)" />
      <ellipse
         id="ellipse55"
         cy="4.5"
         ry="4.5"
         cx="179.15401"
         rx="179.15401"
         style="fill:#ffffff;stroke:none"
         transform="matrix(0.5508974,0.83457298,-0.83457298,0.5508974,0,0)" />
      <ellipse
         id="ellipse57"
         cy="4.5"
         ry="4.5"
         cx="179.15401"
         rx="179.15401"
         style="fill:none"
         transform="matrix(0.5508974,0.83457298,-0.83457298,0.5508974,0,0)" />
      <ellipse
         id="ellipse59"
         cy="4.5"
         ry="4.5"
         cx="186.4895"
         rx="186.4895"
         style="fill:#ffffff;stroke:none"
         transform="matrix(0.47386844,0.88059565,-0.88059565,0.47386844,0,0)" />
      <ellipse
         id="ellipse61"
         cy="4.5"
         ry="4.5"
         cx="186.4895"
         rx="186.4895"
         style="fill:none"
         transform="matrix(0.47386844,0.88059565,-0.88059565,0.47386844,0,0)" />
      <ellipse
         id="ellipse63"
         cy="4.5"
         ry="4.5"
         cx="193.9146"
         rx="193.9146"
         style="fill:#ffffff;stroke:none"
         transform="matrix(0.39302572,0.91952748,-0.91952748,0.39302572,0,0)" />
      <ellipse
         id="ellipse65"
         cy="4.5"
         ry="4.5"
         cx="193.9146"
         rx="193.9146"
         style="fill:none"
         transform="matrix(0.39302572,0.91952748,-0.91952748,0.39302572,0,0)" />
      <ellipse
         id="ellipse67"
         cy="4.5"
         ry="4.5"
         cx="156.0186"
         rx="156.0186"
         style="fill:#ffffff;stroke:none"
         transform="matrix(0.30901699,0.95105652,-0.95105652,0.30901699,0,0)" />
      <ellipse
         id="ellipse69"
         cy="4.5"
         ry="4.5"
         cx="156.0186"
         rx="156.0186"
         style="fill:none"
         transform="matrix(0.30901699,0.95105652,-0.95105652,0.30901699,0,0)" />
      <ellipse
         id="ellipse71"
         cy="4.5"
         ry="4.5"
         cx="187.6653"
         rx="187.6653"
         style="fill:#ffffff;stroke:none"
         transform="matrix(0.2225202,0.97492808,-0.97492808,0.2225202,0,0)" />
      <ellipse
         id="ellipse73"
         cy="4.5"
         ry="4.5"
         cx="187.6653"
         rx="187.6653"
         style="fill:none"
         transform="matrix(0.2225202,0.97492808,-0.97492808,0.2225202,0,0)" />
      <ellipse
         id="ellipse75"
         cy="4.5"
         ry="4.5"
         cx="172.33971"
         rx="172.33971"
         style="fill:#ffffff;stroke:none"
         transform="matrix(0.13423351,0.99094973,-0.99094973,0.13423351,0,0)" />
      <ellipse
         id="ellipse77"
         cy="4.5"
         ry="4.5"
         cx="172.33971"
         rx="172.33971"
         style="fill:none"
         transform="matrix(0.13423351,0.99094973,-0.99094973,0.13423351,0,0)" />
      <ellipse
         id="ellipse79"
         cy="4.5"
         ry="4.5"
         cx="156.8922"
         rx="156.8922"
         style="fill:#ffffff;stroke:none"
         transform="matrix(0.04486433,0.99899309,-0.99899309,0.04486433,0,0)" />
      <ellipse
         id="ellipse81"
         cy="4.5"
         ry="4.5"
         cx="156.8922"
         rx="156.8922"
         style="fill:none"
         transform="matrix(0.04486433,0.99899309,-0.99899309,0.04486433,0,0)" />
      <ellipse
         id="ellipse83"
         cy="4.5"
         ry="4.5"
         cx="154.0397"
         rx="154.0397"
         style="fill:#ffffff;stroke:none"
         transform="matrix(-0.04486433,0.99899309,-0.99899309,-0.04486433,0,0)" />
      <ellipse
         id="ellipse85"
         cy="4.5"
         ry="4.5"
         cx="154.0397"
         rx="154.0397"
         style="fill:none"
         transform="matrix(-0.04486433,0.99899309,-0.99899309,-0.04486433,0,0)" />
      <ellipse
         id="ellipse87"
         cy="4.5"
         ry="4.5"
         cx="162.3381"
         rx="162.3381"
         style="fill:#ffffff;stroke:none"
         transform="matrix(-0.13423351,0.99094973,-0.99094973,-0.13423351,0,0)" />
      <ellipse
         id="ellipse89"
         cy="4.5"
         ry="4.5"
         cx="162.3381"
         rx="162.3381"
         style="fill:none"
         transform="matrix(-0.13423351,0.99094973,-0.99094973,-0.13423351,0,0)" />
      <ellipse
         id="ellipse91"
         cy="4.5"
         ry="4.5"
         cx="171.08189"
         rx="171.08189"
         style="fill:#ffffff;stroke:none"
         transform="matrix(-0.2225202,0.97492808,-0.97492808,-0.2225202,0,0)" />
      <ellipse
         id="ellipse93"
         cy="4.5"
         ry="4.5"
         cx="171.08189"
         rx="171.08189"
         style="fill:none"
         transform="matrix(-0.2225202,0.97492808,-0.97492808,-0.2225202,0,0)" />
      <ellipse
         id="ellipse95"
         cy="4.5"
         ry="4.5"
         cx="179.0347"
         rx="179.0347"
         style="fill:#ffffff;stroke:none"
         transform="matrix(-0.30901699,0.95105652,-0.95105652,-0.30901699,0,0)" />
      <ellipse
         id="ellipse97"
         cy="4.5"
         ry="4.5"
         cx="179.0347"
         rx="179.0347"
         style="fill:none"
         transform="matrix(-0.30901699,0.95105652,-0.95105652,-0.30901699,0,0)" />
      <ellipse
         id="ellipse99"
         cy="4.5"
         ry="4.5"
         cx="195.5576"
         rx="195.5576"
         style="fill:#ffffff;stroke:none"
         transform="matrix(-0.39302572,0.91952748,-0.91952748,-0.39302572,0,0)" />
      <ellipse
         id="ellipse101"
         cy="4.5"
         ry="4.5"
         cx="195.5576"
         rx="195.5576"
         style="fill:none"
         transform="matrix(-0.39302572,0.91952748,-0.91952748,-0.39302572,0,0)" />
      <ellipse
         id="ellipse103"
         cy="4.5"
         ry="4.5"
         cx="180.6082"
         rx="180.6082"
         style="fill:#ffffff;stroke:none"
         transform="matrix(-0.47386844,0.88059565,-0.88059565,-0.47386844,0,0)" />
      <ellipse
         id="ellipse105"
         cy="4.5"
         ry="4.5"
         cx="180.6082"
         rx="180.6082"
         style="fill:none"
         transform="matrix(-0.47386844,0.88059565,-0.88059565,-0.47386844,0,0)" />
      <ellipse
         id="ellipse107"
         cy="4.5"
         ry="4.5"
         cx="185.35201"
         rx="185.35201"
         style="fill:#ffffff;stroke:none"
         transform="matrix(-0.5508974,0.83457298,-0.83457298,-0.5508974,0,0)" />
      <ellipse
         id="ellipse109"
         cy="4.5"
         ry="4.5"
         cx="185.35201"
         rx="185.35201"
         style="fill:none"
         transform="matrix(-0.5508974,0.83457298,-0.83457298,-0.5508974,0,0)" />
      <ellipse
         id="ellipse111"
         cy="4.5"
         ry="4.5"
         cx="151.6646"
         rx="151.6646"
         style="fill:#ffffff;stroke:none"
         transform="matrix(-0.62348941,0.78183179,-0.78183179,-0.62348941,0,0)" />
      <ellipse
         id="ellipse113"
         cy="4.5"
         ry="4.5"
         cx="151.6646"
         rx="151.6646"
         style="fill:none"
         transform="matrix(-0.62348941,0.78183179,-0.78183179,-0.62348941,0,0)" />
      <ellipse
         id="ellipse115"
         cy="4.5"
         ry="4.5"
         cx="177.19119"
         rx="177.19119"
         style="fill:#ffffff;stroke:none"
         transform="matrix(-0.69106283,0.72279469,-0.72279469,-0.69106283,0,0)" />
      <ellipse
         id="ellipse117"
         cy="4.5"
         ry="4.5"
         cx="177.19119"
         rx="177.19119"
         style="fill:none"
         transform="matrix(-0.69106283,0.72279469,-0.72279469,-0.69106283,0,0)" />
      <ellipse
         id="ellipse119"
         cy="4.5"
         ry="4.5"
         cx="181.28239"
         rx="181.28239"
         style="fill:#ffffff;stroke:none"
         transform="matrix(-0.75307097,0.65793929,-0.65793929,-0.75307097,0,0)" />
      <ellipse
         id="ellipse121"
         cy="4.5"
         ry="4.5"
         cx="181.28239"
         rx="181.28239"
         style="fill:none"
         transform="matrix(-0.75307097,0.65793929,-0.65793929,-0.75307097,0,0)" />
      <ellipse
         id="ellipse123"
         cy="4.5"
         ry="4.5"
         cx="186.2114"
         rx="186.2114"
         style="fill:#ffffff;stroke:none"
         transform="matrix(-0.80901699,0.58778525,-0.58778525,-0.80901699,0,0)" />
      <ellipse
         id="ellipse125"
         cy="4.5"
         ry="4.5"
         cx="186.2114"
         rx="186.2114"
         style="fill:none"
         transform="matrix(-0.80901699,0.58778525,-0.58778525,-0.80901699,0,0)" />
      <ellipse
         id="ellipse127"
         cy="4.5"
         ry="4.5"
         cx="158.123"
         rx="158.123"
         style="fill:#ffffff;stroke:none"
         transform="matrix(-0.85844918,0.51289864,-0.51289864,-0.85844918,0,0)" />
      <ellipse
         id="ellipse129"
         cy="4.5"
         ry="4.5"
         cx="158.123"
         rx="158.123"
         style="fill:none"
         transform="matrix(-0.85844918,0.51289864,-0.51289864,-0.85844918,0,0)" />
      <ellipse
         id="ellipse131"
         cy="4.5"
         ry="4.5"
         cx="181.2123"
         rx="181.2123"
         style="fill:#ffffff;stroke:none"
         transform="matrix(-0.90096876,0.43388396,-0.43388396,-0.90096876,0,0)" />
      <ellipse
         id="ellipse133"
         cy="4.5"
         ry="4.5"
         cx="181.2123"
         rx="181.2123"
         style="fill:none"
         transform="matrix(-0.90096876,0.43388396,-0.43388396,-0.90096876,0,0)" />
      <ellipse
         id="ellipse135"
         cy="4.5"
         ry="4.5"
         cx="180.5744"
         rx="180.5744"
         style="fill:#ffffff;stroke:none"
         transform="matrix(-0.93623505,0.35137436,-0.35137436,-0.93623505,0,0)" />
      <ellipse
         id="ellipse137"
         cy="4.5"
         ry="4.5"
         cx="180.5744"
         rx="180.5744"
         style="fill:none"
         transform="matrix(-0.93623505,0.35137436,-0.35137436,-0.93623505,0,0)" />
      <ellipse
         id="ellipse139"
         cy="4.5"
         ry="4.5"
         cx="174.09489"
         rx="174.09489"
         style="fill:#ffffff;stroke:none"
         transform="matrix(-0.96396273,0.26603733,-0.26603733,-0.96396273,0,0)" />
      <ellipse
         id="ellipse141"
         cy="4.5"
         ry="4.5"
         cx="174.09489"
         rx="174.09489"
         style="fill:none"
         transform="matrix(-0.96396273,0.26603733,-0.26603733,-0.96396273,0,0)" />
      <ellipse
         id="ellipse143"
         cy="4.5"
         ry="4.5"
         cx="163.7693"
         rx="163.7693"
         style="fill:#ffffff;stroke:none"
         transform="matrix(-0.98392963,0.17855665,-0.17855665,-0.98392963,0,0)" />
      <ellipse
         id="ellipse145"
         cy="4.5"
         ry="4.5"
         cx="163.7693"
         rx="163.7693"
         style="fill:none"
         transform="matrix(-0.98392963,0.17855665,-0.17855665,-0.98392963,0,0)" />
      <ellipse
         id="ellipse147"
         cy="4.5"
         ry="4.5"
         cx="194.647"
         rx="194.647"
         style="fill:#ffffff;stroke:none"
         transform="matrix(-0.99597423,0.08964005,-0.08964005,-0.99597423,0,0)" />
      <ellipse
         id="ellipse149"
         cy="4.5"
         ry="4.5"
         cx="194.647"
         rx="194.647"
         style="fill:none"
         transform="matrix(-0.99597423,0.08964005,-0.08964005,-0.99597423,0,0)" />
      <ellipse
         id="ellipse151"
         cy="4.5"
         ry="4.5"
         cx="193.875"
         rx="193.875"
         style="fill:#ffffff;stroke:none"
         transform="scale(-1,-1)" />
      <ellipse
         id="ellipse153"
         cy="4.5"
         ry="4.5"
         cx="193.875"
         rx="193.875"
         style="fill:none"
         transform="scale(-1,-1)" />
      <ellipse
         id="ellipse155"
         cy="4.5"
         ry="4.5"
         cx="188.0825"
         rx="188.0825"
         style="fill:#ffffff;stroke:none"
         transform="matrix(-0.99597423,-0.08964005,0.08964005,-0.99597423,0,0)" />
      <ellipse
         id="ellipse157"
         cy="4.5"
         ry="4.5"
         cx="188.0825"
         rx="188.0825"
         style="fill:none"
         transform="matrix(-0.99597423,-0.08964005,0.08964005,-0.99597423,0,0)" />
      <ellipse
         id="ellipse159"
         cy="4.5"
         ry="4.5"
         cx="194.0426"
         rx="194.0426"
         style="fill:#ffffff;stroke:none"
         transform="matrix(-0.98392963,-0.17855665,0.17855665,-0.98392963,0,0)" />
      <ellipse
         id="ellipse161"
         cy="4.5"
         ry="4.5"
         cx="194.0426"
         rx="194.0426"
         style="fill:none"
         transform="matrix(-0.98392963,-0.17855665,0.17855665,-0.98392963,0,0)" />
      <ellipse
         id="ellipse163"
         cy="4.5"
         ry="4.5"
         cx="171.8197"
         rx="171.8197"
         style="fill:#ffffff;stroke:none"
         transform="matrix(-0.96396273,-0.26603733,0.26603733,-0.96396273,0,0)" />
      <ellipse
         id="ellipse165"
         cy="4.5"
         ry="4.5"
         cx="171.8197"
         rx="171.8197"
         style="fill:none"
         transform="matrix(-0.96396273,-0.26603733,0.26603733,-0.96396273,0,0)" />
      <ellipse
         id="ellipse167"
         cy="4.5"
         ry="4.5"
         cx="184.9588"
         rx="184.9588"
         style="fill:#ffffff;stroke:none"
         transform="matrix(-0.93623505,-0.35137436,0.35137436,-0.93623505,0,0)" />
      <ellipse
         id="ellipse169"
         cy="4.5"
         ry="4.5"
         cx="184.9588"
         rx="184.9588"
         style="fill:none"
         transform="matrix(-0.93623505,-0.35137436,0.35137436,-0.93623505,0,0)" />
      <ellipse
         id="ellipse171"
         cy="4.5"
         ry="4.5"
         cx="183.0508"
         rx="183.0508"
         style="fill:#ffffff;stroke:none"
         transform="matrix(-0.90096876,-0.43388396,0.43388396,-0.90096876,0,0)" />
      <ellipse
         id="ellipse173"
         cy="4.5"
         ry="4.5"
         cx="183.0508"
         rx="183.0508"
         style="fill:none"
         transform="matrix(-0.90096876,-0.43388396,0.43388396,-0.90096876,0,0)" />
      <ellipse
         id="ellipse175"
         cy="4.5"
         ry="4.5"
         cx="159.4229"
         rx="159.4229"
         style="fill:#ffffff;stroke:none"
         transform="matrix(-0.85844918,-0.51289864,0.51289864,-0.85844918,0,0)" />
      <ellipse
         id="ellipse177"
         cy="4.5"
         ry="4.5"
         cx="159.4229"
         rx="159.4229"
         style="fill:none"
         transform="matrix(-0.85844918,-0.51289864,0.51289864,-0.85844918,0,0)" />
      <ellipse
         id="ellipse179"
         cy="4.5"
         ry="4.5"
         cx="183.1188"
         rx="183.1188"
         style="fill:#ffffff;stroke:none"
         transform="matrix(-0.80901699,-0.58778525,0.58778525,-0.80901699,0,0)" />
      <ellipse
         id="ellipse181"
         cy="4.5"
         ry="4.5"
         cx="183.1188"
         rx="183.1188"
         style="fill:none"
         transform="matrix(-0.80901699,-0.58778525,0.58778525,-0.80901699,0,0)" />
      <ellipse
         id="ellipse183"
         cy="4.5"
         ry="4.5"
         cx="170.3831"
         rx="170.3831"
         style="fill:#ffffff;stroke:none"
         transform="matrix(-0.75307097,-0.65793929,0.65793929,-0.75307097,0,0)" />
      <ellipse
         id="ellipse185"
         cy="4.5"
         ry="4.5"
         cx="170.3831"
         rx="170.3831"
         style="fill:none"
         transform="matrix(-0.75307097,-0.65793929,0.65793929,-0.75307097,0,0)" />
      <ellipse
         id="ellipse187"
         cy="4.5"
         ry="4.5"
         cx="165.4733"
         rx="165.4733"
         style="fill:#ffffff;stroke:none"
         transform="matrix(-0.69106283,-0.72279469,0.72279469,-0.69106283,0,0)" />
      <ellipse
         id="ellipse189"
         cy="4.5"
         ry="4.5"
         cx="165.4733"
         rx="165.4733"
         style="fill:none"
         transform="matrix(-0.69106283,-0.72279469,0.72279469,-0.69106283,0,0)" />
      <ellipse
         id="ellipse191"
         cy="4.5"
         ry="4.5"
         cx="172.3811"
         rx="172.3811"
         style="fill:#ffffff;stroke:none"
         transform="matrix(-0.62348941,-0.78183179,0.78183179,-0.62348941,0,0)" />
      <ellipse
         id="ellipse193"
         cy="4.5"
         ry="4.5"
         cx="172.3811"
         rx="172.3811"
         style="fill:none"
         transform="matrix(-0.62348941,-0.78183179,0.78183179,-0.62348941,0,0)" />
      <ellipse
         id="ellipse195"
         cy="4.5"
         ry="4.5"
         cx="173.27271"
         rx="173.27271"
         style="fill:#ffffff;stroke:none"
         transform="matrix(-0.5508974,-0.83457298,0.83457298,-0.5508974,0,0)" />
      <ellipse
         id="ellipse197"
         cy="4.5"
         ry="4.5"
         cx="173.27271"
         rx="173.27271"
         style="fill:none"
         transform="matrix(-0.5508974,-0.83457298,0.83457298,-0.5508974,0,0)" />
      <ellipse
         id="ellipse199"
         cy="4.5"
         ry="4.5"
         cx="164.40691"
         rx="164.40691"
         style="fill:#ffffff;stroke:none"
         transform="matrix(-0.47386844,-0.88059565,0.88059565,-0.47386844,0,0)" />
      <ellipse
         id="ellipse201"
         cy="4.5"
         ry="4.5"
         cx="164.40691"
         rx="164.40691"
         style="fill:none"
         transform="matrix(-0.47386844,-0.88059565,0.88059565,-0.47386844,0,0)" />
      <ellipse
         id="ellipse203"
         cy="4.5"
         ry="4.5"
         cx="169.8606"
         rx="169.8606"
         style="fill:#ffffff;stroke:none"
         transform="matrix(-0.39302572,-0.91952748,0.91952748,-0.39302572,0,0)" />
      <ellipse
         id="ellipse205"
         cy="4.5"
         ry="4.5"
         cx="169.8606"
         rx="169.8606"
         style="fill:none"
         transform="matrix(-0.39302572,-0.91952748,0.91952748,-0.39302572,0,0)" />
      <ellipse
         id="ellipse207"
         cy="4.5"
         ry="4.5"
         cx="179.7235"
         rx="179.7235"
         style="fill:#ffffff;stroke:none"
         transform="matrix(-0.30901699,-0.95105652,0.95105652,-0.30901699,0,0)" />
      <ellipse
         id="ellipse209"
         cy="4.5"
         ry="4.5"
         cx="179.7235"
         rx="179.7235"
         style="fill:none"
         transform="matrix(-0.30901699,-0.95105652,0.95105652,-0.30901699,0,0)" />
      <ellipse
         id="ellipse211"
         cy="4.5"
         ry="4.5"
         cx="160.576"
         rx="160.576"
         style="fill:#ffffff;stroke:none"
         transform="matrix(-0.2225202,-0.97492808,0.97492808,-0.2225202,0,0)" />
      <ellipse
         id="ellipse213"
         cy="4.5"
         ry="4.5"
         cx="160.576"
         rx="160.576"
         style="fill:none"
         transform="matrix(-0.2225202,-0.97492808,0.97492808,-0.2225202,0,0)" />
      <ellipse
         id="ellipse215"
         cy="4.5"
         ry="4.5"
         cx="169.8315"
         rx="169.8315"
         style="fill:#ffffff;stroke:none"
         transform="matrix(-0.13423351,-0.99094973,0.99094973,-0.13423351,0,0)" />
      <ellipse
         id="ellipse217"
         cy="4.5"
         ry="4.5"
         cx="169.8315"
         rx="169.8315"
         style="fill:none"
         transform="matrix(-0.13423351,-0.99094973,0.99094973,-0.13423351,0,0)" />
      <ellipse
         id="ellipse219"
         cy="4.5"
         ry="4.5"
         cx="191.5735"
         rx="191.5735"
         style="fill:#ffffff;stroke:none"
         transform="matrix(-0.04486433,-0.99899309,0.99899309,-0.04486433,0,0)" />
      <ellipse
         id="ellipse221"
         cy="4.5"
         ry="4.5"
         cx="191.5735"
         rx="191.5735"
         style="fill:none"
         transform="matrix(-0.04486433,-0.99899309,0.99899309,-0.04486433,0,0)" />
      <ellipse
         id="ellipse223"
         cy="4.5"
         ry="4.5"
         cx="182.69119"
         rx="182.69119"
         style="fill:#ffffff;stroke:none"
         transform="matrix(0.04486433,-0.99899309,0.99899309,0.04486433,0,0)" />
      <ellipse
         id="ellipse225"
         cy="4.5"
         ry="4.5"
         cx="182.69119"
         rx="182.69119"
         style="fill:none"
         transform="matrix(0.04486433,-0.99899309,0.99899309,0.04486433,0,0)" />
      <ellipse
         id="ellipse227"
         cy="4.5"
         ry="4.5"
         cx="182.83949"
         rx="182.83949"
         style="fill:#ffffff;stroke:none"
         transform="matrix(0.13423351,-0.99094973,0.99094973,0.13423351,0,0)" />
      <ellipse
         id="ellipse229"
         cy="4.5"
         ry="4.5"
         cx="182.83949"
         rx="182.83949"
         style="fill:none"
         transform="matrix(0.13423351,-0.99094973,0.99094973,0.13423351,0,0)" />
      <ellipse
         id="ellipse231"
         cy="4.5"
         ry="4.5"
         cx="177.01221"
         rx="177.01221"
         style="fill:#ffffff;stroke:none"
         transform="matrix(0.2225202,-0.97492808,0.97492808,0.2225202,0,0)" />
      <ellipse
         id="ellipse233"
         cy="4.5"
         ry="4.5"
         cx="177.01221"
         rx="177.01221"
         style="fill:none"
         transform="matrix(0.2225202,-0.97492808,0.97492808,0.2225202,0,0)" />
      <ellipse
         id="ellipse235"
         cy="4.5"
         ry="4.5"
         cx="188.1738"
         rx="188.1738"
         style="fill:#ffffff;stroke:none"
         transform="matrix(0.30901699,-0.95105652,0.95105652,0.30901699,0,0)" />
      <ellipse
         id="ellipse237"
         cy="4.5"
         ry="4.5"
         cx="188.1738"
         rx="188.1738"
         style="fill:none"
         transform="matrix(0.30901699,-0.95105652,0.95105652,0.30901699,0,0)" />
      <ellipse
         id="ellipse239"
         cy="4.5"
         ry="4.5"
         cx="159.8544"
         rx="159.8544"
         style="fill:#ffffff;stroke:none"
         transform="matrix(0.39302572,-0.91952748,0.91952748,0.39302572,0,0)" />
      <ellipse
         id="ellipse241"
         cy="4.5"
         ry="4.5"
         cx="159.8544"
         rx="159.8544"
         style="fill:none"
         transform="matrix(0.39302572,-0.91952748,0.91952748,0.39302572,0,0)" />
      <ellipse
         id="ellipse243"
         cy="4.5"
         ry="4.5"
         cx="178.7804"
         rx="178.7804"
         style="fill:#ffffff;stroke:none"
         transform="matrix(0.47386844,-0.88059565,0.88059565,0.47386844,0,0)" />
      <ellipse
         id="ellipse245"
         cy="4.5"
         ry="4.5"
         cx="178.7804"
         rx="178.7804"
         style="fill:none"
         transform="matrix(0.47386844,-0.88059565,0.88059565,0.47386844,0,0)" />
      <ellipse
         id="ellipse247"
         cy="4.5"
         ry="4.5"
         cx="176.9518"
         rx="176.9518"
         style="fill:#ffffff;stroke:none"
         transform="matrix(0.5508974,-0.83457298,0.83457298,0.5508974,0,0)" />
      <ellipse
         id="ellipse249"
         cy="4.5"
         ry="4.5"
         cx="176.9518"
         rx="176.9518"
         style="fill:none"
         transform="matrix(0.5508974,-0.83457298,0.83457298,0.5508974,0,0)" />
      <ellipse
         id="ellipse251"
         cy="4.5"
         ry="4.5"
         cx="150.9101"
         rx="150.9101"
         style="fill:#ffffff;stroke:none"
         transform="matrix(0.62348941,-0.78183179,0.78183179,0.62348941,0,0)" />
      <ellipse
         id="ellipse253"
         cy="4.5"
         ry="4.5"
         cx="150.9101"
         rx="150.9101"
         style="fill:none"
         transform="matrix(0.62348941,-0.78183179,0.78183179,0.62348941,0,0)" />
      <ellipse
         id="ellipse255"
         cy="4.5"
         ry="4.5"
         cx="174.37579"
         rx="174.37579"
         style="fill:#ffffff;stroke:none"
         transform="matrix(0.69106283,-0.72279469,0.72279469,0.69106283,0,0)" />
      <ellipse
         id="ellipse257"
         cy="4.5"
         ry="4.5"
         cx="174.37579"
         rx="174.37579"
         style="fill:none"
         transform="matrix(0.69106283,-0.72279469,0.72279469,0.69106283,0,0)" />
      <ellipse
         id="ellipse259"
         cy="4.5"
         ry="4.5"
         cx="193.9563"
         rx="193.9563"
         style="fill:#ffffff;stroke:none"
         transform="matrix(0.75307097,-0.65793929,0.65793929,0.75307097,0,0)" />
      <ellipse
         id="ellipse261"
         cy="4.5"
         ry="4.5"
         cx="193.9563"
         rx="193.9563"
         style="fill:none"
         transform="matrix(0.75307097,-0.65793929,0.65793929,0.75307097,0,0)" />
      <ellipse
         id="ellipse263"
         cy="4.5"
         ry="4.5"
         cx="163.20309"
         rx="163.20309"
         style="fill:#ffffff;stroke:none"
         transform="matrix(0.80901699,-0.58778525,0.58778525,0.80901699,0,0)" />
      <ellipse
         id="ellipse265"
         cy="4.5"
         ry="4.5"
         cx="163.20309"
         rx="163.20309"
         style="fill:none"
         transform="matrix(0.80901699,-0.58778525,0.58778525,0.80901699,0,0)" />
      <ellipse
         id="ellipse267"
         cy="4.5"
         ry="4.5"
         cx="183.3654"
         rx="183.3654"
         style="fill:#ffffff;stroke:none"
         transform="matrix(0.85844918,-0.51289864,0.51289864,0.85844918,0,0)" />
      <ellipse
         id="ellipse269"
         cy="4.5"
         ry="4.5"
         cx="183.3654"
         rx="183.3654"
         style="fill:none"
         transform="matrix(0.85844918,-0.51289864,0.51289864,0.85844918,0,0)" />
      <ellipse
         id="ellipse271"
         cy="4.5"
         ry="4.5"
         cx="187.2713"
         rx="187.2713"
         style="fill:#ffffff;stroke:none"
         transform="matrix(0.90096876,-0.43388396,0.43388396,0.90096876,0,0)" />
      <ellipse
         id="ellipse273"
         cy="4.5"
         ry="4.5"
         cx="187.2713"
         rx="187.2713"
         style="fill:none"
         transform="matrix(0.90096876,-0.43388396,0.43388396,0.90096876,0,0)" />
      <ellipse
         id="ellipse275"
         cy="4.5"
         ry="4.5"
         cx="155.9252"
         rx="155.9252"
         style="fill:#ffffff;stroke:none"
         transform="matrix(0.93623505,-0.35137436,0.35137436,0.93623505,0,0)" />
      <ellipse
         id="ellipse277"
         cy="4.5"
         ry="4.5"
         cx="155.9252"
         rx="155.9252"
         style="fill:none"
         transform="matrix(0.93623505,-0.35137436,0.35137436,0.93623505,0,0)" />
      <ellipse
         id="ellipse279"
         cy="4.5"
         ry="4.5"
         cx="180.3828"
         rx="180.3828"
         style="fill:#ffffff;stroke:none"
         transform="matrix(0.96396273,-0.26603733,0.26603733,0.96396273,0,0)" />
      <ellipse
         id="ellipse281"
         cy="4.5"
         ry="4.5"
         cx="180.3828"
         rx="180.3828"
         style="fill:none"
         transform="matrix(0.96396273,-0.26603733,0.26603733,0.96396273,0,0)" />
      <ellipse
         id="ellipse283"
         cy="4.5"
         ry="4.5"
         cx="193.8353"
         rx="193.8353"
         style="fill:#ffffff;stroke:none"
         transform="matrix(0.98392963,-0.17855665,0.17855665,0.98392963,0,0)" />
      <ellipse
         id="ellipse285"
         cy="4.5"
         ry="4.5"
         cx="193.8353"
         rx="193.8353"
         style="fill:none"
         transform="matrix(0.98392963,-0.17855665,0.17855665,0.98392963,0,0)" />
      <ellipse
         id="ellipse287"
         cy="4.5"
         ry="4.5"
         cx="193.5446"
         rx="193.5446"
         style="fill:#ffffff;stroke:none"
         transform="matrix(0.99597423,-0.08964005,0.08964005,0.99597423,0,0)" />
      <ellipse
         id="ellipse289"
         cy="4.5"
         ry="4.5"
         cx="193.5446"
         rx="193.5446"
         style="fill:none"
         transform="matrix(0.99597423,-0.08964005,0.08964005,0.99597423,0,0)" />
    </g>
    <g
       id="g291"
       transform="translate(600,420)"
       style="stroke-linecap:round">
      <line
         id="line293"
         y1="0"
         x2="353.23859"
         x1="0"
         style="fill:none"
         y2="5" />
      <line
         id="line295"
         y2="5"
         style="fill:none"
         y1="0"
         x2="376.8266"
         x1="0"
         transform="matrix(0.9921147,0.12533323,-0.12533323,0.9921147,0,0)" />
      <line
         id="line297"
         y2="5"
         style="fill:none"
         y1="0"
         x2="397.46539"
         x1="0"
         transform="matrix(0.96858316,0.24868989,-0.24868989,0.96858316,0,0)" />
      <line
         id="line299"
         y2="5"
         style="fill:none"
         y1="0"
         x2="374.75369"
         x1="0"
         transform="matrix(0.92977649,0.36812455,-0.36812455,0.92977649,0,0)" />
      <line
         id="line301"
         y2="5"
         style="fill:none"
         y1="0"
         x2="360.1886"
         x1="0"
         transform="matrix(0.87630668,0.48175367,-0.48175367,0.87630668,0,0)" />
      <line
         id="line303"
         y2="5"
         style="fill:none"
         y1="0"
         x2="363.4715"
         x1="0"
         transform="matrix(0.80901699,0.58778525,-0.58778525,0.80901699,0,0)" />
      <line
         id="line305"
         y2="5"
         style="fill:none"
         y1="0"
         x2="379.49701"
         x1="0"
         transform="matrix(0.72896863,0.68454711,-0.68454711,0.72896863,0,0)" />
      <line
         id="line307"
         y2="5"
         style="fill:none"
         y1="0"
         x2="352.91739"
         x1="0"
         transform="matrix(0.63742399,0.77051324,-0.77051324,0.63742399,0,0)" />
      <line
         id="line309"
         y2="5"
         style="fill:none"
         y1="0"
         x2="373.41479"
         x1="0"
         transform="matrix(0.53582679,0.84432793,-0.84432793,0.53582679,0,0)" />
      <line
         id="line311"
         y2="5"
         style="fill:none"
         y1="0"
         x2="386.8913"
         x1="0"
         transform="matrix(0.42577929,0.90482705,-0.90482705,0.42577929,0,0)" />
      <line
         id="line313"
         y2="5"
         style="fill:none"
         y1="0"
         x2="360.74911"
         x1="0"
         transform="matrix(0.30901699,0.95105652,-0.95105652,0.30901699,0,0)" />
      <line
         id="line315"
         y2="5"
         style="fill:none"
         y1="0"
         x2="389.4834"
         x1="0"
         transform="matrix(0.18738131,0.98228725,-0.98228725,0.18738131,0,0)" />
      <line
         id="line317"
         y2="5"
         style="fill:none"
         y1="0"
         x2="395.8829"
         x1="0"
         transform="matrix(0.06279052,0.99802673,-0.99802673,0.06279052,0,0)" />
      <line
         id="line319"
         y2="5"
         style="fill:none"
         y1="0"
         x2="358.76401"
         x1="0"
         transform="matrix(-0.06279052,0.99802673,-0.99802673,-0.06279052,0,0)" />
      <line
         id="line321"
         y2="5"
         style="fill:none"
         y1="0"
         x2="384.47229"
         x1="0"
         transform="matrix(-0.18738131,0.98228725,-0.98228725,-0.18738131,0,0)" />
      <line
         id="line323"
         y2="5"
         style="fill:none"
         y1="0"
         x2="384.16531"
         x1="0"
         transform="matrix(-0.30901699,0.95105652,-0.95105652,-0.30901699,0,0)" />
      <line
         id="line325"
         y2="5"
         style="fill:none"
         y1="0"
         x2="388.16611"
         x1="0"
         transform="matrix(-0.42577929,0.90482705,-0.90482705,-0.42577929,0,0)" />
      <line
         id="line327"
         y2="5"
         style="fill:none"
         y1="0"
         x2="377.44879"
         x1="0"
         transform="matrix(-0.53582679,0.84432793,-0.84432793,-0.53582679,0,0)" />
      <line
         id="line329"
         y2="5"
         style="fill:none"
         y1="0"
         x2="361.3548"
         x1="0"
         transform="matrix(-0.63742399,0.77051324,-0.77051324,-0.63742399,0,0)" />
      <line
         id="line331"
         y2="5"
         style="fill:none"
         y1="0"
         x2="371.16031"
         x1="0"
         transform="matrix(-0.72896863,0.68454711,-0.68454711,-0.72896863,0,0)" />
      <line
         id="line333"
         y2="5"
         style="fill:none"
         y1="0"
         x2="380.05991"
         x1="0"
         transform="matrix(-0.80901699,0.58778525,-0.58778525,-0.80901699,0,0)" />
      <line
         id="line335"
         y2="5"
         style="fill:none"
         y1="0"
         x2="386.07251"
         x1="0"
         transform="matrix(-0.87630668,0.48175367,-0.48175367,-0.87630668,0,0)" />
      <line
         id="line337"
         y2="5"
         style="fill:none"
         y1="0"
         x2="378.31619"
         x1="0"
         transform="matrix(-0.92977649,0.36812455,-0.36812455,-0.92977649,0,0)" />
      <line
         id="line339"
         y2="5"
         style="fill:none"
         y1="0"
         x2="370.95969"
         x1="0"
         transform="matrix(-0.96858316,0.24868989,-0.24868989,-0.96858316,0,0)" />
      <line
         id="line341"
         y2="5"
         style="fill:none"
         y1="0"
         x2="387.44131"
         x1="0"
         transform="matrix(-0.9921147,0.12533323,-0.12533323,-0.9921147,0,0)" />
      <line
         id="line343"
         y2="5"
         style="fill:none"
         y1="0"
         x2="380.1731"
         x1="0"
         transform="scale(-1,-1)" />
      <line
         id="line345"
         y2="5"
         style="fill:none"
         y1="0"
         x2="381.02069"
         x1="0"
         transform="matrix(-0.9921147,-0.12533323,0.12533323,-0.9921147,0,0)" />
      <line
         id="line347"
         y2="5"
         style="fill:none"
         y1="0"
         x2="390.57321"
         x1="0"
         transform="matrix(-0.96858316,-0.24868989,0.24868989,-0.96858316,0,0)" />
      <line
         id="line349"
         y2="5"
         style="fill:none"
         y1="0"
         x2="378.92889"
         x1="0"
         transform="matrix(-0.92977649,-0.36812455,0.36812455,-0.92977649,0,0)" />
      <line
         id="line351"
         y2="5"
         style="fill:none"
         y1="0"
         x2="351.86661"
         x1="0"
         transform="matrix(-0.87630668,-0.48175367,0.48175367,-0.87630668,0,0)" />
      <line
         id="line353"
         y2="5"
         style="fill:none"
         y1="0"
         x2="399.16449"
         x1="0"
         transform="matrix(-0.80901699,-0.58778525,0.58778525,-0.80901699,0,0)" />
      <line
         id="line355"
         y2="5"
         style="fill:none"
         y1="0"
         x2="361.43329"
         x1="0"
         transform="matrix(-0.72896863,-0.68454711,0.68454711,-0.72896863,0,0)" />
      <line
         id="line357"
         y2="5"
         style="fill:none"
         y1="0"
         x2="394.71689"
         x1="0"
         transform="matrix(-0.63742399,-0.77051324,0.77051324,-0.63742399,0,0)" />
      <line
         id="line359"
         y2="5"
         style="fill:none"
         y1="0"
         x2="395.3403"
         x1="0"
         transform="matrix(-0.53582679,-0.84432793,0.84432793,-0.53582679,0,0)" />
      <line
         id="line361"
         y2="5"
         style="fill:none"
         y1="0"
         x2="364.5766"
         x1="0"
         transform="matrix(-0.42577929,-0.90482705,0.90482705,-0.42577929,0,0)" />
      <line
         id="line363"
         y2="5"
         style="fill:none"
         y1="0"
         x2="395.01251"
         x1="0"
         transform="matrix(-0.30901699,-0.95105652,0.95105652,-0.30901699,0,0)" />
      <line
         id="line365"
         y2="5"
         style="fill:none"
         y1="0"
         x2="350.24951"
         x1="0"
         transform="matrix(-0.18738131,-0.98228725,0.98228725,-0.18738131,0,0)" />
      <line
         id="line367"
         y2="5"
         style="fill:none"
         y1="0"
         x2="384.66141"
         x1="0"
         transform="matrix(-0.06279052,-0.99802673,0.99802673,-0.06279052,0,0)" />
      <line
         id="line369"
         y2="5"
         style="fill:none"
         y1="0"
         x2="352.22391"
         x1="0"
         transform="matrix(0.06279052,-0.99802673,0.99802673,0.06279052,0,0)" />
      <line
         id="line371"
         y2="5"
         style="fill:none"
         y1="0"
         x2="360.76691"
         x1="0"
         transform="matrix(0.18738131,-0.98228725,0.98228725,0.18738131,0,0)" />
      <line
         id="line373"
         y2="5"
         style="fill:none"
         y1="0"
         x2="390.88431"
         x1="0"
         transform="matrix(0.30901699,-0.95105652,0.95105652,0.30901699,0,0)" />
      <line
         id="line375"
         y2="5"
         style="fill:none"
         y1="0"
         x2="392.11591"
         x1="0"
         transform="matrix(0.42577929,-0.90482705,0.90482705,0.42577929,0,0)" />
      <line
         id="line377"
         y2="5"
         style="fill:none"
         y1="0"
         x2="353.17841"
         x1="0"
         transform="matrix(0.53582679,-0.84432793,0.84432793,0.53582679,0,0)" />
      <line
         id="line379"
         y2="5"
         style="fill:none"
         y1="0"
         x2="358.44791"
         x1="0"
         transform="matrix(0.63742399,-0.77051324,0.77051324,0.63742399,0,0)" />
      <line
         id="line381"
         y2="5"
         style="fill:none"
         y1="0"
         x2="359.98029"
         x1="0"
         transform="matrix(0.72896863,-0.68454711,0.68454711,0.72896863,0,0)" />
      <line
         id="line383"
         y2="5"
         style="fill:none"
         y1="0"
         x2="367.0592"
         x1="0"
         transform="matrix(0.80901699,-0.58778525,0.58778525,0.80901699,0,0)" />
      <line
         id="line385"
         y2="5"
         style="fill:none"
         y1="0"
         x2="351.49521"
         x1="0"
         transform="matrix(0.87630668,-0.48175367,0.48175367,0.87630668,0,0)" />
      <line
         id="line387"
         y2="5"
         style="fill:none"
         y1="0"
         x2="358.17191"
         x1="0"
         transform="matrix(0.92977649,-0.36812455,0.36812455,0.92977649,0,0)" />
      <line
         id="line389"
         y2="5"
         style="fill:none"
         y1="0"
         x2="352.97501"
         x1="0"
         transform="matrix(0.96858316,-0.24868989,0.24868989,0.96858316,0,0)" />
      <line
         id="line391"
         y2="5"
         style="fill:none"
         y1="0"
         x2="378.32471"
         x1="0"
         transform="matrix(0.9921147,-0.12533323,0.12533323,0.9921147,0,0)" />
    </g>
  </g>
  <WCB
     application="Axidraw"
     randseed="0"
     pausedposy="0"
     pausedposx="0"
     lastknownposy="0"
     lastknownposx="0"
     lastpathnc="0"
     lastpath="0"
     node="0"
     layer="0" />
</svg>
