<?xml version="1.0" encoding="UTF-8" standalone="no"?>
<svg
   xmlns:dc="http://purl.org/dc/elements/1.1/"
   xmlns:cc="http://creativecommons.org/ns#"
   xmlns:rdf="http://www.w3.org/1999/02/22-rdf-syntax-ns#"
   xmlns:svg="http://www.w3.org/2000/svg"
   xmlns="http://www.w3.org/2000/svg"
   xmlns:sodipodi="http://sodipodi.sourceforge.net/DTD/sodipodi-0.dtd"
   xmlns:inkscape="http://www.inkscape.org/namespaces/inkscape"
   style="font-style:normal;font-weight:normal;font-size:12px;font-family:Dialog;color-interpolation:auto;fill:#000000;fill-opacity:1;stroke:#000000;stroke-width:1;stroke-linecap:square;stroke-linejoin:miter;stroke-miterlimit:10;stroke-dasharray:none;stroke-dashoffset:0;stroke-opacity:1;color-rendering:auto;image-rendering:auto;shape-rendering:auto;text-rendering:auto"
   width="297mm"
   height="210mm"
   id="svg2"
   version="1.1"
   inkscape:version="0.91 r13725"
   sodipodi:docname="print_chrisitane_01.svg">
  <sodipodi:namedview
     pagecolor="#ffffff"
     bordercolor="#666666"
     borderopacity="1"
     objecttolerance="10"
     gridtolerance="10"
     guidetolerance="10"
     inkscape:pageopacity="0"
     inkscape:pageshadow="2"
     inkscape:window-width="1261"
     inkscape:window-height="796"
     id="namedview215"
     showgrid="false"
     units="mm"
     inkscape:zoom="0.79465333"
     inkscape:cx="263.39237"
     inkscape:cy="187.0755"
     inkscape:window-x="0"
     inkscape:window-y="0"
     inkscape:window-maximized="0"
     inkscape:current-layer="svg2" />
  <metadata
     id="metadata217">
    <rdf:RDF>
      <cc:Work
         rdf:about="">
        <dc:format>image/svg+xml</dc:format>
        <dc:type
           rdf:resource="http://purl.org/dc/dcmitype/StillImage" />
        <dc:title></dc:title>
      </cc:Work>
    </rdf:RDF>
  </metadata>
  <!--Generated by the Batik Graphics2D SVG Generator-->
  <defs
     id="genericDefs" />
  <g
     transform="matrix(0.83918983,0,0,0.83918983,22.667204,19.587515)"
     id="g5">
    <g
       id="g7"
       transform="translate(600,370)"
       style="stroke-linecap:round">
      <path
         inkscape:connector-curvature="0"
         id="path9"
         d="M -100,0 100,0 0,-200 Z"
         style="fill:none" />
    </g>
    <g
       id="g11"
       transform="matrix(0.97492808,0.2225202,-0.2225202,0.97492808,611.12601,371.2536)"
       style="stroke-linecap:round">
      <path
         inkscape:connector-curvature="0"
         id="path13"
         d="M -100,0 100,0 0,-200 Z"
         style="fill:none" />
    </g>
    <g
       id="g15"
       transform="matrix(0.90096876,0.43388396,-0.43388396,0.90096876,621.6942,374.95156)"
       style="stroke-linecap:round">
      <path
         inkscape:connector-curvature="0"
         id="path17"
         d="M -100,0 100,0 0,-200 Z"
         style="fill:none" />
    </g>
    <g
       id="g19"
       transform="matrix(0.78183179,0.62348941,-0.62348941,0.78183179,631.17447,380.90841)"
       style="stroke-linecap:round">
      <path
         inkscape:connector-curvature="0"
         id="path21"
         d="M -100,0 100,0 0,-200 Z"
         style="fill:none" />
    </g>
    <g
       id="g23"
       transform="matrix(0.62348941,0.78183179,-0.78183179,0.62348941,639.09159,388.82553)"
       style="stroke-linecap:round">
      <path
         inkscape:connector-curvature="0"
         id="path25"
         d="M -100,0 100,0 0,-200 Z"
         style="fill:none" />
    </g>
    <g
       id="g27"
       transform="matrix(0.43388396,0.90096876,-0.90096876,0.43388396,645.04844,398.3058)"
       style="stroke-linecap:round">
      <path
         inkscape:connector-curvature="0"
         id="path29"
         d="M -100,0 100,0 0,-200 Z"
         style="fill:none" />
    </g>
    <g
       id="g31"
       transform="matrix(0.2225202,0.97492808,-0.97492808,0.2225202,648.7464,408.87399)"
       style="stroke-linecap:round">
      <path
         inkscape:connector-curvature="0"
         id="path33"
         d="M -100,0 100,0 0,-200 Z"
         style="fill:none" />
    </g>
    <g
       id="g35"
       transform="matrix(0,1,-1,0,650,420)"
       style="stroke-linecap:round">
      <path
         inkscape:connector-curvature="0"
         id="path37"
         d="M -100,0 100,0 0,-200 Z"
         style="fill:none" />
    </g>
    <g
       id="g39"
       transform="matrix(-0.2225202,0.97492808,-0.97492808,-0.2225202,648.7464,431.12601)"
       style="stroke-linecap:round">
      <path
         inkscape:connector-curvature="0"
         id="path41"
         d="M -100,0 100,0 0,-200 Z"
         style="fill:none" />
    </g>
    <g
       id="g43"
       transform="matrix(-0.43388396,0.90096876,-0.90096876,-0.43388396,645.04844,441.6942)"
       style="stroke-linecap:round">
      <path
         inkscape:connector-curvature="0"
         id="path45"
         d="M -100,0 100,0 0,-200 Z"
         style="fill:none" />
    </g>
    <g
       id="g47"
       transform="matrix(-0.62348941,0.78183179,-0.78183179,-0.62348941,639.09159,451.17447)"
       style="stroke-linecap:round">
      <path
         inkscape:connector-curvature="0"
         id="path49"
         d="M -100,0 100,0 0,-200 Z"
         style="fill:none" />
    </g>
    <g
       id="g51"
       transform="matrix(-0.78183179,0.62348941,-0.62348941,-0.78183179,631.17447,459.09159)"
       style="stroke-linecap:round">
      <path
         inkscape:connector-curvature="0"
         id="path53"
         d="M -100,0 100,0 0,-200 Z"
         style="fill:none" />
    </g>
    <g
       id="g55"
       transform="matrix(-0.90096876,0.43388396,-0.43388396,-0.90096876,621.6942,465.04844)"
       style="stroke-linecap:round">
      <path
         inkscape:connector-curvature="0"
         id="path57"
         d="M -100,0 100,0 0,-200 Z"
         style="fill:none" />
    </g>
    <g
       id="g59"
       transform="matrix(-0.97492808,0.2225202,-0.2225202,-0.97492808,611.12601,468.7464)"
       style="stroke-linecap:round">
      <path
         inkscape:connector-curvature="0"
         id="path61"
         d="M -100,0 100,0 0,-200 Z"
         style="fill:none" />
    </g>
    <g
       id="g63"
       transform="matrix(-1,0,0,-1,600,470)"
       style="stroke-linecap:round">
      <path
         inkscape:connector-curvature="0"
         id="path65"
         d="M -100,0 100,0 0,-200 Z"
         style="fill:none" />
    </g>
    <g
       id="g67"
       transform="matrix(-0.97492808,-0.2225202,0.2225202,-0.97492808,588.87399,468.7464)"
       style="stroke-linecap:round">
      <path
         inkscape:connector-curvature="0"
         id="path69"
         d="M -100,0 100,0 0,-200 Z"
         style="fill:none" />
    </g>
    <g
       id="g71"
       transform="matrix(-0.90096876,-0.43388396,0.43388396,-0.90096876,578.3058,465.04844)"
       style="stroke-linecap:round">
      <path
         inkscape:connector-curvature="0"
         id="path73"
         d="M -100,0 100,0 0,-200 Z"
         style="fill:none" />
    </g>
    <g
       id="g75"
       transform="matrix(-0.78183179,-0.62348941,0.62348941,-0.78183179,568.82553,459.09159)"
       style="stroke-linecap:round">
      <path
         inkscape:connector-curvature="0"
         id="path77"
         d="M -100,0 100,0 0,-200 Z"
         style="fill:none" />
    </g>
    <g
       id="g79"
       transform="matrix(-0.62348941,-0.78183179,0.78183179,-0.62348941,560.90841,451.17447)"
       style="stroke-linecap:round">
      <path
         inkscape:connector-curvature="0"
         id="path81"
         d="M -100,0 100,0 0,-200 Z"
         style="fill:none" />
    </g>
    <g
       id="g83"
       transform="matrix(-0.43388396,-0.90096876,0.90096876,-0.43388396,554.95156,441.6942)"
       style="stroke-linecap:round">
      <path
         inkscape:connector-curvature="0"
         id="path85"
         d="M -100,0 100,0 0,-200 Z"
         style="fill:none" />
    </g>
    <g
       id="g87"
       transform="matrix(-0.2225202,-0.97492808,0.97492808,-0.2225202,551.2536,431.12601)"
       style="stroke-linecap:round">
      <path
         inkscape:connector-curvature="0"
         id="path89"
         d="M -100,0 100,0 0,-200 Z"
         style="fill:none" />
    </g>
    <g
       id="g91"
       transform="matrix(0,-1,1,0,550,420)"
       style="stroke-linecap:round">
      <path
         inkscape:connector-curvature="0"
         id="path93"
         d="M -100,0 100,0 0,-200 Z"
         style="fill:none" />
    </g>
    <g
       id="g95"
       transform="matrix(0.22252191,-0.97492769,0.97492769,0.22252191,551.25362,408.8739)"
       style="stroke-linecap:round">
      <path
         inkscape:connector-curvature="0"
         id="path97"
         d="M -100,0 100,0 0,-200 Z"
         style="fill:none" />
    </g>
    <g
       id="g99"
       transform="matrix(0.43388396,-0.90096876,0.90096876,0.43388396,554.95156,398.3058)"
       style="stroke-linecap:round">
      <path
         inkscape:connector-curvature="0"
         id="path101"
         d="M -100,0 100,0 0,-200 Z"
         style="fill:none" />
    </g>
    <g
       id="g103"
       transform="matrix(0.62348941,-0.78183179,0.78183179,0.62348941,560.90841,388.82553)"
       style="stroke-linecap:round">
      <path
         inkscape:connector-curvature="0"
         id="path105"
         d="M -100,0 100,0 0,-200 Z"
         style="fill:none" />
    </g>
    <g
       id="g107"
       transform="matrix(0.78183179,-0.62348941,0.62348941,0.78183179,568.82553,380.90841)"
       style="stroke-linecap:round">
      <path
         inkscape:connector-curvature="0"
         id="path109"
         d="M -100,0 100,0 0,-200 Z"
         style="fill:none" />
    </g>
    <g
       id="g111"
       transform="matrix(0.90096876,-0.43388396,0.43388396,0.90096876,578.3058,374.95156)"
       style="stroke-linecap:round">
      <path
         inkscape:connector-curvature="0"
         id="path113"
         d="M -100,0 100,0 0,-200 Z"
         style="fill:none" />
    </g>
    <g
       id="g115"
       transform="matrix(0.97492808,-0.2225202,0.2225202,0.97492808,588.87399,371.2536)"
       style="stroke-linecap:round">
      <path
         inkscape:connector-curvature="0"
         id="path117"
         d="M -100,0 100,0 0,-200 Z"
         style="fill:none" />
    </g>
    <g
       id="g119"
       transform="translate(600,100)"
       style="stroke-linecap:round">
      <path
         inkscape:connector-curvature="0"
         id="path121"
         d="M -10,0 10,0 0,-20 Z"
         style="fill:none" />
    </g>
    <g
       id="g123"
       transform="matrix(0.8660254,0.5,-0.5,0.8660254,760,142.87187)"
       style="stroke-linecap:round">
      <path
         inkscape:connector-curvature="0"
         id="path125"
         d="M -10,0 10,0 0,-20 Z"
         style="fill:none" />
    </g>
    <g
       id="g127"
       transform="matrix(0.5,0.8660254,-0.8660254,0.5,877.12813,260)"
       style="stroke-linecap:round">
      <path
         inkscape:connector-curvature="0"
         id="path129"
         d="M -10,0 10,0 0,-20 Z"
         style="fill:none" />
    </g>
    <g
       id="g131"
       transform="matrix(0,1,-1,0,920,420)"
       style="stroke-linecap:round">
      <path
         inkscape:connector-curvature="0"
         id="path133"
         d="M -10,0 10,0 0,-20 Z"
         style="fill:none" />
    </g>
    <g
       id="g135"
       transform="matrix(-0.5,0.8660254,-0.8660254,-0.5,877.12813,580)"
       style="stroke-linecap:round">
      <path
         inkscape:connector-curvature="0"
         id="path137"
         d="M -10,0 10,0 0,-20 Z"
         style="fill:none" />
    </g>
    <g
       id="g139"
       transform="matrix(-0.8660254,0.5,-0.5,-0.8660254,760,697.12813)"
       style="stroke-linecap:round">
      <path
         inkscape:connector-curvature="0"
         id="path141"
         d="M -10,0 10,0 0,-20 Z"
         style="fill:none" />
    </g>
    <g
       id="g143"
       transform="matrix(-1,0,0,-1,600,740)"
       style="stroke-linecap:round">
      <path
         inkscape:connector-curvature="0"
         id="path145"
         d="M -10,0 10,0 0,-20 Z"
         style="fill:none" />
    </g>
    <g
       id="g147"
       transform="matrix(-0.8660254,-0.5,0.5,-0.8660254,440,697.12813)"
       style="stroke-linecap:round">
      <path
         inkscape:connector-curvature="0"
         id="path149"
         d="M -10,0 10,0 0,-20 Z"
         style="fill:none" />
    </g>
    <g
       id="g151"
       transform="matrix(-0.5,-0.8660254,0.8660254,-0.5,322.87187,580)"
       style="stroke-linecap:round">
      <path
         inkscape:connector-curvature="0"
         id="path153"
         d="M -10,0 10,0 0,-20 Z"
         style="fill:none" />
    </g>
    <g
       id="g155"
       transform="matrix(0,-1,1,0,280,420)"
       style="stroke-linecap:round">
      <path
         inkscape:connector-curvature="0"
         id="path157"
         d="M -10,0 10,0 0,-20 Z"
         style="fill:none" />
    </g>
    <g
       id="g159"
       transform="matrix(0.5,-0.8660254,0.8660254,0.5,322.87187,260)"
       style="stroke-linecap:round">
      <path
         inkscape:connector-curvature="0"
         id="path161"
         d="M -10,0 10,0 0,-20 Z"
         style="fill:none" />
    </g>
    <g
       id="g163"
       transform="matrix(0.8660254,-0.5,0.5,0.8660254,440,142.87187)"
       style="stroke-linecap:round">
      <path
         inkscape:connector-curvature="0"
         id="path165"
         d="M -10,0 10,0 0,-20 Z"
         style="fill:none" />
    </g>
    <g
       id="g167"
       transform="translate(600,120)"
       style="stroke-linecap:round">
      <path
         inkscape:connector-curvature="0"
         id="path169"
         d="M -50,0 50,0 0,-100 Z"
         style="fill:none" />
    </g>
    <g
       id="g171"
       transform="matrix(0.8660254,0.5,-0.5,0.8660254,750,160.19238)"
       style="stroke-linecap:round">
      <path
         inkscape:connector-curvature="0"
         id="path173"
         d="M -50,0 50,0 0,-100 Z"
         style="fill:none" />
    </g>
    <g
       id="g175"
       transform="matrix(0.5,0.8660254,-0.8660254,0.5,859.80762,270)"
       style="stroke-linecap:round">
      <path
         inkscape:connector-curvature="0"
         id="path177"
         d="M -50,0 50,0 0,-100 Z"
         style="fill:none" />
    </g>
    <g
       id="g179"
       transform="matrix(0,1,-1,0,900,420)"
       style="stroke-linecap:round">
      <path
         inkscape:connector-curvature="0"
         id="path181"
         d="M -50,0 50,0 0,-100 Z"
         style="fill:none" />
    </g>
    <g
       id="g183"
       transform="matrix(-0.5,0.8660254,-0.8660254,-0.5,859.80762,570)"
       style="stroke-linecap:round">
      <path
         inkscape:connector-curvature="0"
         id="path185"
         d="M -50,0 50,0 0,-100 Z"
         style="fill:none" />
    </g>
    <g
       id="g187"
       transform="matrix(-0.8660254,0.5,-0.5,-0.8660254,750,679.80762)"
       style="stroke-linecap:round">
      <path
         inkscape:connector-curvature="0"
         id="path189"
         d="M -50,0 50,0 0,-100 Z"
         style="fill:none" />
    </g>
    <g
       id="g191"
       transform="matrix(-1,0,0,-1,600,720)"
       style="stroke-linecap:round">
      <path
         inkscape:connector-curvature="0"
         id="path193"
         d="M -50,0 50,0 0,-100 Z"
         style="fill:none" />
    </g>
    <g
       id="g195"
       transform="matrix(-0.8660254,-0.5,0.5,-0.8660254,450,679.80762)"
       style="stroke-linecap:round">
      <path
         inkscape:connector-curvature="0"
         id="path197"
         d="M -50,0 50,0 0,-100 Z"
         style="fill:none" />
    </g>
    <g
       id="g199"
       transform="matrix(-0.5,-0.8660254,0.8660254,-0.5,340.19238,570)"
       style="stroke-linecap:round">
      <path
         inkscape:connector-curvature="0"
         id="path201"
         d="M -50,0 50,0 0,-100 Z"
         style="fill:none" />
    </g>
    <g
       id="g203"
       transform="matrix(0,-1,1,0,300,420)"
       style="stroke-linecap:round">
      <path
         inkscape:connector-curvature="0"
         id="path205"
         d="M -50,0 50,0 0,-100 Z"
         style="fill:none" />
    </g>
    <g
       id="g207"
       transform="matrix(0.5,-0.8660254,0.8660254,0.5,340.19238,270)"
       style="stroke-linecap:round">
      <path
         inkscape:connector-curvature="0"
         id="path209"
         d="M -50,0 50,0 0,-100 Z"
         style="fill:none" />
    </g>
    <g
       id="g211"
       transform="matrix(0.8660254,-0.5,0.5,0.8660254,450,160.19238)"
       style="stroke-linecap:round">
      <path
         inkscape:connector-curvature="0"
         id="path213"
         d="M -50,0 50,0 0,-100 Z"
         style="fill:none" />
    </g>
  </g>
  <WCB
     application="Axidraw"
     randseed="0"
     pausedposy="0"
     pausedposx="0"
     lastknownposy="0"
     lastknownposx="0"
     lastpathnc="0"
     lastpath="0"
     node="0"
     layer="0" />
</svg>
